{
	"asset":{
		"generator":"Khronos glTF Blender I/O v4.2.60",
		"version":"2.0"
	},
	"scene":0,
	"scenes":[
		{
			"name":"Scene",
			"nodes":[
				0,
				1,
				2,
				3
			]
		}
	],
	"nodes":[
		{
			"name":"Empty",
			"rotation":[
				0.5,
				0.5,
				-0.5,
				0.5
			],
			"scale":[
				1.0933046340942383,
				1.0933046340942383,
				1.0933046340942383
			],
			"translation":[
				-4.00649881362915,
				0,
				-0.2899433374404907
			]
		},
		{
			"name":"Empty.001",
			"rotation":[
				0.7066184878349304,
				-0.026276880875229836,
				-0.026276875287294388,
				0.7066183686256409
			],
			"scale":[
				0.6838793158531189,
				0.6838793158531189,
				0.6838793158531189
			],
			"translation":[
				-0.8517194390296936,
				-0.4409509003162384,
				-3.529724597930908
			]
		},
		{
			"mesh":0,
			"name":"Roundcube.002",
			"scale":[
				1.5807114839553833,
				1.5807114839553833,
				1.9722561836242676
			]
		},
		{
			"mesh":1,
			"name":"Cube",
			"rotation":[
				0,
				1,
				0,
				0
			],
			"scale":[
				0.3339393436908722,
				0.12555140256881714,
				0.2176540344953537
			],
			"translation":[
				0,
				0.0024858713150024414,
				1.7755064964294434
			]
		}
	],
	"meshes":[
		{
			"name":"Roundcube.002",
			"primitives":[
				{
					"attributes":{
						"POSITION":0,
						"NORMAL":1,
						"TEXCOORD_0":2
					},
					"indices":3
				}
			]
		},
		{
			"name":"Cube",
			"primitives":[
				{
					"attributes":{
						"POSITION":4,
						"NORMAL":5,
						"TEXCOORD_0":6
					},
					"indices":7
				}
			]
		}
	],
	"accessors":[
		{
			"bufferView":0,
			"componentType":5126,
			"count":310,
			"max":[
				1.1114940643310547,
				1.2260658740997314,
				1
			],
			"min":[
				0,
				-1.1464866399765015,
				-1.2161939144134521
			],
			"type":"VEC3"
		},
		{
			"bufferView":1,
			"componentType":5126,
			"count":310,
			"type":"VEC3"
		},
		{
			"bufferView":2,
			"componentType":5126,
			"count":310,
			"type":"VEC2"
		},
		{
			"bufferView":3,
			"componentType":5123,
			"count":1602,
			"type":"SCALAR"
		},
		{
			"bufferView":4,
			"componentType":5126,
			"count":118,
			"max":[
				1,
				1,
				1
			],
			"min":[
				-1,
				-2.603847026824951,
				-0.9996722936630249
			],
			"type":"VEC3"
		},
		{
			"bufferView":5,
			"componentType":5126,
			"count":118,
			"type":"VEC3"
		},
		{
			"bufferView":6,
			"componentType":5126,
			"count":118,
			"type":"VEC2"
		},
		{
			"bufferView":7,
			"componentType":5123,
			"count":516,
			"type":"SCALAR"
		}
	],
	"bufferViews":[
		{
			"buffer":0,
			"byteLength":3720,
			"byteOffset":0,
			"target":34962
		},
		{
			"buffer":0,
			"byteLength":3720,
			"byteOffset":3720,
			"target":34962
		},
		{
			"buffer":0,
			"byteLength":2480,
			"byteOffset":7440,
			"target":34962
		},
		{
			"buffer":0,
			"byteLength":3204,
			"byteOffset":9920,
			"target":34963
		},
		{
			"buffer":0,
			"byteLength":1416,
			"byteOffset":13124,
			"target":34962
		},
		{
			"buffer":0,
			"byteLength":1416,
			"byteOffset":14540,
			"target":34962
		},
		{
			"buffer":0,
			"byteLength":944,
			"byteOffset":15956,
			"target":34962
		},
		{
			"buffer":0,
			"byteLength":1032,
			"byteOffset":16900,
			"target":34963
		}
	],
	"buffers":[
		{
			"byteLength":17932,
			"uri":"STELLA.bin"
		}
	]
}
