{
	"asset":{
		"generator":"Khronos glTF Blender I/O v4.2.70",
		"version":"2.0"
	},
	"scene":0,
	"scenes":[
		{
			"name":"Scene",
			"nodes":[
				0,
				1
			]
		}
	],
	"nodes":[
		{
			"mesh":0,
			"name":"Roundcube.002",
			"rotation":[
				-0.031216228380799294,
				-9.421791037311777e-05,
				0.06024528294801712,
				0.9976953864097595
			],
			"scale":[
				1.5807114839553833,
				1.5807114839553833,
				1.9722561836242676
			],
			"translation":[
				-0.0005181950982660055,
				-0.05559505522251129,
				-0.0003554224967956543
			]
		},
		{
			"mesh":1,
			"name":"Cube",
			"rotation":[
				-0.06024530157446861,
				0.9976954460144043,
				-0.03121623396873474,
				9.421799040865153e-05
			],
			"scale":[
				0.49603551626205444,
				0.18649479746818542,
				0.32330459356307983
			],
			"translation":[
				0.0005181950982660055,
				-0.011358655989170074,
				1.7758619785308838
			]
		}
	],
	"materials":[
		{
			"doubleSided":true,
			"name":"BODY",
			"pbrMetallicRoughness":{
				"baseColorFactor":[
					0.23454871773719788,
					0.5583411455154419,
					0.2874410152435303,
					1
				],
				"metallicFactor":0.30000001192092896,
				"roughnessFactor":0.8000000715255737
			}
		},
		{
			"doubleSided":true,
			"name":"PURP.001",
			"pbrMetallicRoughness":{
				"baseColorFactor":[
					0.3712356388568878,
					0.03820423781871796,
					0.3613068759441376,
					1
				],
				"metallicFactor":0.20000000298023224,
				"roughnessFactor":0.20000000298023224
			}
		},
		{
			"doubleSided":true,
			"name":"EYE WHITES",
			"pbrMetallicRoughness":{
				"baseColorFactor":[
					0.28314661979675293,
					0.5149179697036743,
					0.4125429093837738,
					1
				],
				"metallicFactor":0.20000000298023224,
				"roughnessFactor":0.20000000298023224
			}
		},
		{
			"doubleSided":true,
			"name":"EARS.001",
			"pbrMetallicRoughness":{
				"baseColorFactor":[
					0.3712356388568878,
					0.03820423781871796,
					0.3613068759441376,
					1
				],
				"metallicFactor":0.30000001192092896,
				"roughnessFactor":0.800000011920929
			}
		},
		{
			"doubleSided":true,
			"name":"Material",
			"pbrMetallicRoughness":{
				"baseColorFactor":[
					0.3712356388568878,
					0.03820423781871796,
					0.3613068759441376,
					1
				],
				"metallicFactor":0.30000001192092896,
				"roughnessFactor":0.37272727489471436
			}
		}
	],
	"meshes":[
		{
			"name":"Mesh",
			"primitives":[
				{
					"attributes":{
						"POSITION":0,
						"NORMAL":1,
						"TEXCOORD_0":2
					},
					"indices":3,
					"material":0
				},
				{
					"attributes":{
						"POSITION":4,
						"NORMAL":5,
						"TEXCOORD_0":6
					},
					"indices":7,
					"material":1
				},
				{
					"attributes":{
						"POSITION":8,
						"NORMAL":9,
						"TEXCOORD_0":10
					},
					"indices":11,
					"material":2
				},
				{
					"attributes":{
						"POSITION":12,
						"NORMAL":13,
						"TEXCOORD_0":14
					},
					"indices":15,
					"material":3
				}
			]
		},
		{
			"name":"Mesh",
			"primitives":[
				{
					"attributes":{
						"POSITION":16,
						"NORMAL":17,
						"TEXCOORD_0":18
					},
					"indices":19,
					"material":4
				}
			]
		}
	],
	"accessors":[
		{
			"bufferView":0,
			"componentType":5126,
			"count":21501,
			"max":[
				0.9813656806945801,
				0.9813656806945801,
				0.9656705856323242
			],
			"min":[
				-0.9813656806945801,
				-1.1431963443756104,
				-0.9709311127662659
			],
			"type":"VEC3"
		},
		{
			"bufferView":1,
			"componentType":5126,
			"count":21501,
			"type":"VEC3"
		},
		{
			"bufferView":2,
			"componentType":5126,
			"count":21501,
			"type":"VEC2"
		},
		{
			"bufferView":3,
			"componentType":5123,
			"count":126720,
			"type":"SCALAR"
		},
		{
			"bufferView":4,
			"componentType":5126,
			"count":5478,
			"max":[
				0.8686790466308594,
				0.47655078768730164,
				0.9777334928512573
			],
			"min":[
				-0.8686790466308594,
				-0.013371577486395836,
				0.7221316695213318
			],
			"type":"VEC3"
		},
		{
			"bufferView":5,
			"componentType":5126,
			"count":5478,
			"type":"VEC3"
		},
		{
			"bufferView":6,
			"componentType":5126,
			"count":5478,
			"type":"VEC2"
		},
		{
			"bufferView":7,
			"componentType":5123,
			"count":28800,
			"type":"SCALAR"
		},
		{
			"bufferView":8,
			"componentType":5126,
			"count":4321,
			"max":[
				0.859584391117096,
				0.51323401927948,
				0.9545509815216064
			],
			"min":[
				-0.8595844507217407,
				-0.0882360115647316,
				0.6093523502349854
			],
			"type":"VEC3"
		},
		{
			"bufferView":9,
			"componentType":5126,
			"count":4321,
			"type":"VEC3"
		},
		{
			"bufferView":10,
			"componentType":5126,
			"count":4321,
			"type":"VEC2"
		},
		{
			"bufferView":11,
			"componentType":5123,
			"count":23040,
			"type":"SCALAR"
		},
		{
			"bufferView":12,
			"componentType":5126,
			"count":3667,
			"max":[
				0.9479657411575317,
				1.3954293727874756,
				0.458979070186615
			],
			"min":[
				-0.9479658603668213,
				-0.11018282920122147,
				-1.3030976057052612
			],
			"type":"VEC3"
		},
		{
			"bufferView":13,
			"componentType":5126,
			"count":3667,
			"type":"VEC3"
		},
		{
			"bufferView":14,
			"componentType":5126,
			"count":3667,
			"type":"VEC2"
		},
		{
			"bufferView":15,
			"componentType":5123,
			"count":21504,
			"type":"SCALAR"
		},
		{
			"bufferView":16,
			"componentType":5126,
			"count":1664,
			"max":[
				1.0000001192092896,
				1.0000001192092896,
				1.0000001192092896
			],
			"min":[
				-1.0000001192092896,
				-2.5482051372528076,
				-0.9996246099472046
			],
			"type":"VEC3"
		},
		{
			"bufferView":17,
			"componentType":5126,
			"count":1664,
			"type":"VEC3"
		},
		{
			"bufferView":18,
			"componentType":5126,
			"count":1664,
			"type":"VEC2"
		},
		{
			"bufferView":19,
			"componentType":5123,
			"count":8256,
			"type":"SCALAR"
		}
	],
	"bufferViews":[
		{
			"buffer":0,
			"byteLength":258012,
			"byteOffset":0,
			"target":34962
		},
		{
			"buffer":0,
			"byteLength":258012,
			"byteOffset":258012,
			"target":34962
		},
		{
			"buffer":0,
			"byteLength":172008,
			"byteOffset":516024,
			"target":34962
		},
		{
			"buffer":0,
			"byteLength":253440,
			"byteOffset":688032,
			"target":34963
		},
		{
			"buffer":0,
			"byteLength":65736,
			"byteOffset":941472,
			"target":34962
		},
		{
			"buffer":0,
			"byteLength":65736,
			"byteOffset":1007208,
			"target":34962
		},
		{
			"buffer":0,
			"byteLength":43824,
			"byteOffset":1072944,
			"target":34962
		},
		{
			"buffer":0,
			"byteLength":57600,
			"byteOffset":1116768,
			"target":34963
		},
		{
			"buffer":0,
			"byteLength":51852,
			"byteOffset":1174368,
			"target":34962
		},
		{
			"buffer":0,
			"byteLength":51852,
			"byteOffset":1226220,
			"target":34962
		},
		{
			"buffer":0,
			"byteLength":34568,
			"byteOffset":1278072,
			"target":34962
		},
		{
			"buffer":0,
			"byteLength":46080,
			"byteOffset":1312640,
			"target":34963
		},
		{
			"buffer":0,
			"byteLength":44004,
			"byteOffset":1358720,
			"target":34962
		},
		{
			"buffer":0,
			"byteLength":44004,
			"byteOffset":1402724,
			"target":34962
		},
		{
			"buffer":0,
			"byteLength":29336,
			"byteOffset":1446728,
			"target":34962
		},
		{
			"buffer":0,
			"byteLength":43008,
			"byteOffset":1476064,
			"target":34963
		},
		{
			"buffer":0,
			"byteLength":19968,
			"byteOffset":1519072,
			"target":34962
		},
		{
			"buffer":0,
			"byteLength":19968,
			"byteOffset":1539040,
			"target":34962
		},
		{
			"buffer":0,
			"byteLength":13312,
			"byteOffset":1559008,
			"target":34962
		},
		{
			"buffer":0,
			"byteLength":16512,
			"byteOffset":1572320,
			"target":34963
		}
	],
	"buffers":[
		{
			"byteLength":1588832,
			"uri":"data:application/octet-stream;base64,"
		}
	]
}
